<?xml version="1.0" encoding="UTF-8"?>
<svg width="1em" height="1em" fill="currentColor" stroke="currentColor" version="1.1" viewBox="0 0 700 500" xmlns="http://www.w3.org/2000/svg">
    <g fill-rule="evenodd">
        <path d="m87.5 105v192.5h227.5v-192.5zm39.375 21.875c2.3203 0 4.5469 0.92188 6.1875 2.5625s2.5625 3.8672 2.5625 6.1875-0.92188 4.5469-2.5625 6.1875-3.8672 2.5625-6.1875 2.5625c-4.832 0-8.75-3.918-8.75-8.75s3.918-8.75 8.75-8.75zm37.188 0c2.3203 0 4.5469 0.92188 6.1875 2.5625s2.5625 3.8672 2.5625 6.1875-0.92188 4.5469-2.5625 6.1875-3.8672 2.5625-6.1875 2.5625c-4.832 0-8.75-3.918-8.75-8.75s3.918-8.75 8.75-8.75zm37.188 0c2.3203 0 4.5469 0.92188 6.1875 2.5625s2.5625 3.8672 2.5625 6.1875-0.92188 4.5469-2.5625 6.1875-3.8672 2.5625-6.1875 2.5625c-4.832 0-8.75-3.918-8.75-8.75s3.918-8.75 8.75-8.75zm37.188 0c2.3203 0 4.5469 0.92188 6.1875 2.5625s2.5625 3.8672 2.5625 6.1875-0.92188 4.5469-2.5625 6.1875-3.8672 2.5625-6.1875 2.5625c-4.832 0-8.75-3.918-8.75-8.75s3.918-8.75 8.75-8.75zm37.188 0c2.3203 0 4.5469 0.92188 6.1875 2.5625s2.5625 3.8672 2.5625 6.1875-0.92188 4.5469-2.5625 6.1875-3.8672 2.5625-6.1875 2.5625c-4.832 0-8.75-3.918-8.75-8.75s3.918-8.75 8.75-8.75zm-130.16 21.875c2.3203 0 4.5469 0.92188 6.1875 2.5625s2.5625 3.8672 2.5625 6.1875-0.92188 4.5469-2.5625 6.1875-3.8672 2.5625-6.1875 2.5625c-4.832 0-8.75-3.918-8.75-8.75s3.918-8.75 8.75-8.75zm37.188 0c2.3203 0 4.5469 0.92188 6.1875 2.5625s2.5625 3.8672 2.5625 6.1875-0.92188 4.5469-2.5625 6.1875-3.8672 2.5625-6.1875 2.5625c-4.832 0-8.75-3.918-8.75-8.75s3.918-8.75 8.75-8.75zm37.188 0c2.3203 0 4.5469 0.92188 6.1875 2.5625s2.5625 3.8672 2.5625 6.1875-0.92188 4.5469-2.5625 6.1875-3.8672 2.5625-6.1875 2.5625c-4.832 0-8.75-3.918-8.75-8.75s3.918-8.75 8.75-8.75zm37.188 0c2.3203 0 4.5469 0.92188 6.1875 2.5625s2.5625 3.8672 2.5625 6.1875-0.92188 4.5469-2.5625 6.1875-3.8672 2.5625-6.1875 2.5625c-4.832 0-8.75-3.918-8.75-8.75s3.918-8.75 8.75-8.75zm-130.16 21.875c2.3203 0 4.5469 0.92188 6.1875 2.5625s2.5625 3.8672 2.5625 6.1875-0.92188 4.5469-2.5625 6.1875-3.8672 2.5625-6.1875 2.5625c-4.832 0-8.75-3.918-8.75-8.75s3.918-8.75 8.75-8.75zm37.188 0c2.3203 0 4.5469 0.92188 6.1875 2.5625s2.5625 3.8672 2.5625 6.1875-0.92188 4.5469-2.5625 6.1875-3.8672 2.5625-6.1875 2.5625c-4.832 0-8.75-3.918-8.75-8.75s3.918-8.75 8.75-8.75zm37.188 0c2.3203 0 4.5469 0.92188 6.1875 2.5625s2.5625 3.8672 2.5625 6.1875-0.92188 4.5469-2.5625 6.1875-3.8672 2.5625-6.1875 2.5625c-4.832 0-8.75-3.918-8.75-8.75s3.918-8.75 8.75-8.75zm37.188 0c2.3203 0 4.5469 0.92188 6.1875 2.5625s2.5625 3.8672 2.5625 6.1875-0.92188 4.5469-2.5625 6.1875-3.8672 2.5625-6.1875 2.5625c-4.832 0-8.75-3.918-8.75-8.75s3.918-8.75 8.75-8.75zm37.188 0c2.3203 0 4.5469 0.92188 6.1875 2.5625s2.5625 3.8672 2.5625 6.1875-0.92188 4.5469-2.5625 6.1875-3.8672 2.5625-6.1875 2.5625c-4.832 0-8.75-3.918-8.75-8.75s3.918-8.75 8.75-8.75zm-130.16 21.875c2.3203 0 4.5469 0.92188 6.1875 2.5625s2.5625 3.8672 2.5625 6.1875-0.92188 4.5469-2.5625 6.1875-3.8672 2.5625-6.1875 2.5625c-4.832 0-8.75-3.918-8.75-8.75s3.918-8.75 8.75-8.75zm37.188 0c2.3203 0 4.5469 0.92188 6.1875 2.5625s2.5625 3.8672 2.5625 6.1875-0.92188 4.5469-2.5625 6.1875-3.8672 2.5625-6.1875 2.5625c-4.832 0-8.75-3.918-8.75-8.75s3.918-8.75 8.75-8.75zm37.188 0c2.3203 0 4.5469 0.92188 6.1875 2.5625s2.5625 3.8672 2.5625 6.1875-0.92188 4.5469-2.5625 6.1875-3.8672 2.5625-6.1875 2.5625c-4.832 0-8.75-3.918-8.75-8.75s3.918-8.75 8.75-8.75zm37.188 0c2.3203 0 4.5469 0.92188 6.1875 2.5625s2.5625 3.8672 2.5625 6.1875-0.92188 4.5469-2.5625 6.1875-3.8672 2.5625-6.1875 2.5625c-4.832 0-8.75-3.918-8.75-8.75s3.918-8.75 8.75-8.75zm-130.16 21.875c2.3203 0 4.5469 0.92188 6.1875 2.5625s2.5625 3.8672 2.5625 6.1875-0.92188 4.5469-2.5625 6.1875-3.8672 2.5625-6.1875 2.5625c-4.832 0-8.75-3.918-8.75-8.75s3.918-8.75 8.75-8.75zm37.188 0c2.3203 0 4.5469 0.92188 6.1875 2.5625s2.5625 3.8672 2.5625 6.1875-0.92188 4.5469-2.5625 6.1875-3.8672 2.5625-6.1875 2.5625c-4.832 0-8.75-3.918-8.75-8.75s3.918-8.75 8.75-8.75zm37.188 0c2.3203 0 4.5469 0.92188 6.1875 2.5625s2.5625 3.8672 2.5625 6.1875-0.92188 4.5469-2.5625 6.1875-3.8672 2.5625-6.1875 2.5625c-4.832 0-8.75-3.918-8.75-8.75s3.918-8.75 8.75-8.75zm37.188 0c2.3203 0 4.5469 0.92188 6.1875 2.5625s2.5625 3.8672 2.5625 6.1875-0.92188 4.5469-2.5625 6.1875-3.8672 2.5625-6.1875 2.5625c-4.832 0-8.75-3.918-8.75-8.75s3.918-8.75 8.75-8.75zm37.188 0c2.3203 0 4.5469 0.92188 6.1875 2.5625s2.5625 3.8672 2.5625 6.1875-0.92188 4.5469-2.5625 6.1875-3.8672 2.5625-6.1875 2.5625c-4.832 0-8.75-3.918-8.75-8.75s3.918-8.75 8.75-8.75zm-130.16 21.875c2.3203 0 4.5469 0.92188 6.1875 2.5625s2.5625 3.8672 2.5625 6.1875-0.92188 4.5469-2.5625 6.1875-3.8672 2.5625-6.1875 2.5625c-4.832 0-8.75-3.918-8.75-8.75s3.918-8.75 8.75-8.75zm37.188 0c2.3203 0 4.5469 0.92188 6.1875 2.5625s2.5625 3.8672 2.5625 6.1875-0.92188 4.5469-2.5625 6.1875-3.8672 2.5625-6.1875 2.5625c-4.832 0-8.75-3.918-8.75-8.75s3.918-8.75 8.75-8.75zm37.188 0c2.3203 0 4.5469 0.92188 6.1875 2.5625s2.5625 3.8672 2.5625 6.1875-0.92188 4.5469-2.5625 6.1875-3.8672 2.5625-6.1875 2.5625c-4.832 0-8.75-3.918-8.75-8.75s3.918-8.75 8.75-8.75zm37.188 0c2.3203 0 4.5469 0.92188 6.1875 2.5625s2.5625 3.8672 2.5625 6.1875-0.92188 4.5469-2.5625 6.1875-3.8672 2.5625-6.1875 2.5625c-4.832 0-8.75-3.918-8.75-8.75s3.918-8.75 8.75-8.75zm-130.16 21.875c2.3203 0 4.5469 0.92188 6.1875 2.5625s2.5625 3.8672 2.5625 6.1875-0.92188 4.5469-2.5625 6.1875-3.8672 2.5625-6.1875 2.5625c-4.832 0-8.75-3.918-8.75-8.75s3.918-8.75 8.75-8.75zm37.188 0c2.3203 0 4.5469 0.92188 6.1875 2.5625s2.5625 3.8672 2.5625 6.1875-0.92188 4.5469-2.5625 6.1875-3.8672 2.5625-6.1875 2.5625c-4.832 0-8.75-3.918-8.75-8.75s3.918-8.75 8.75-8.75zm37.188 0c2.3203 0 4.5469 0.92188 6.1875 2.5625s2.5625 3.8672 2.5625 6.1875-0.92188 4.5469-2.5625 6.1875-3.8672 2.5625-6.1875 2.5625c-4.832 0-8.75-3.918-8.75-8.75s3.918-8.75 8.75-8.75zm37.188 0c2.3203 0 4.5469 0.92188 6.1875 2.5625s2.5625 3.8672 2.5625 6.1875-0.92188 4.5469-2.5625 6.1875-3.8672 2.5625-6.1875 2.5625c-4.832 0-8.75-3.918-8.75-8.75s3.918-8.75 8.75-8.75zm37.188 0c2.3203 0 4.5469 0.92188 6.1875 2.5625s2.5625 3.8672 2.5625 6.1875-0.92188 4.5469-2.5625 6.1875-3.8672 2.5625-6.1875 2.5625c-4.832 0-8.75-3.918-8.75-8.75s3.918-8.75 8.75-8.75z" />
        <path d="m332.5 157.5v35h280v-35z" />
        <path d="m332.5 210v35h280v-35z" />
        <path d="m332.5 262.5v35h280v-35z" />
        <path d="m87.5 315v35h525v-35z" />
        <path d="m87.5 367.5v35h525v-35z" />
        <path d="m87.5 420v35h525v-35z" />
        <path d="m332.5 105v35h280v-35z" />
    </g>
</svg>